<svg width="193" height="44" xmlns="http://www.w3.org/2000/svg"><g fill="none" fill-rule="evenodd"><path d="M102.894 24.496c.431 0 .662.315.662.702 0 .82-.935 2.021-3.277 2.491.274-1.947 1.403-3.193 2.615-3.193m88.327-.139a.748.748 0 00-.43.154c-1.795 1.363-5.578 4.2-9.205 6.266.351-.858.739-1.753 1.048-2.645.745-2.066 1.6-3.813 1.6-4.397 0-.778-1.324-1.09-2.068-1.09-.663 0-1.21.234-1.478.737-1.407 2.609-4.019 5.642-7.258 6.925.898-1.864 2.572-5.093 3.12-6.22.12-.237.12-.311.12-.433 0-.62-1.216-1.201-2.342-1.201-.663 0-1.332.193-1.64.735-.274.455-.536.892-.779 1.314-1.75 1.39-5.265 4.067-9.015 5.518 0-1.168 1.794-2.995 1.794-4.355 0-.506-.233-.933-.937-1.247-.545-.232-1.09-.467-1.792-.7.112-.35.195-.697.195-1.008 0-1.05-.743-1.712-2.147-1.712-1.682 0-2.888 1.441-2.888 2.874 0 .59.152 1.133.585 1.635l.007.01c-1.817 1.332-4.548 3.214-7.212 4.116.78-2.144 1.874-4.317 2.735-6.147.035-.118.075-.232.075-.35 0-.663-1.133-.892-2.303-.892-.704 0-1.209.309-1.444.777-1.246 2.529-4.365 6.03-7.375 7.157.898-1.868 2.575-5.095 3.083-6.145.156-.316.156-.392.156-.51 0-.622-1.212-1.203-2.341-1.203-.664 0-1.325.195-1.64.743-.272.44-.517.868-.758 1.282-1.147.832-4.42 3.7-8.104 5.288-.896.387-1.948.66-2.887.66-1.25 0-2.225-.507-2.225-1.983 0-2.337 1.64-3.814 3.041-3.814.24 0 .355.117.355.315 0 .54-.781 1.631-.781 2.256 0 .736.666 1.049 1.407 1.049 2.3 0 2.728-2.918 2.728-3.463 0-1.518-1.44-2.1-3.47-2.1-1.848 0-4.014.996-5.504 2.486-1.888 1.463-5.021 3.697-8.336 4.98 0-1.167 1.794-2.994 1.794-4.354 0-.506-.232-.933-.938-1.247-.547-.232-1.091-.467-1.792-.7a3.2 3.2 0 00.194-1.008c0-1.05-.742-1.712-2.144-1.712-1.679 0-2.888 1.441-2.888 2.874 0 .59.152 1.133.585 1.635l.071.093c-1.768 1.33-4.437 3.242-7.065 4.265-.742.27-1.599.505-2.42.505-.818 0-1.56-.192-1.912-.778 2.848-.624 6.283-2.22 6.283-4.665 0-1.517-1.168-2.374-3.205-2.374-1.45 0-3.11.623-4.48 1.616-1.033.632-5.436 4.307-9.427 5.658 1.6-3.854 7.414-15.016 7.414-19.06 0-1.437-1.248-2.488-2.383-2.488-1.753 0-7.18 6.495-11.742 13.261 2.81-5.054 5.305-9.879 5.305-12.717 0-1.402-.934-2.88-2.417-2.88-2.224 0-8.622 6.926-13.93 14.004 2.69-5.407 4.917-10.853 4.917-13.46C76.73 4.855 75.793 4 74.545 4c-4.604 0-12.485 4.28-16.192 7.158-.235.196-.353.424-.353.66 0 .543.548 1.129 1.134 1.129.195 0 .391-.078.585-.197 4.368-2.956 8.739-4.903 12.485-5.831-.428 4.663-5.347 15.673-10.066 22.946a.778.778 0 00-.118.428c0 .933 1.093 2.448 1.95 2.448.236 0 .433-.074.624-.347 6.712-8.09 14.126-16.96 18.458-21.745-.314 3.19-4.995 12.642-9.128 20.229-.042.038-.042.115-.042.15 0 .624 1.483 1.795 2.419 1.795.31 0 .511-.156.703-.429 5.93-8.831 11.472-15.559 15.958-19.915-1.755 6.38-7.844 15.477-7.844 18.32 0 1.05.82 1.825 2.344 1.825 1.632 0 5.221-1.949 8.752-4.255-.012.15-.033.295-.033.45 0 2.875 1.796 4.004 4.648 4.004 3.64 0 7.284-2.23 11.852-5.455.318-.167.635-.362.952-.575.47.192.977.35 1.6.58-.43 1.016-1.798 2.726-1.798 3.738 0 1.165.548 1.712 1.525 1.712 1.679 0 5.472-2.117 8.502-4.1 0 .034-.009.065-.009.095 0 2.876 1.796 4.005 4.645 4.005 3.3 0 6.598-1.86 10.59-4.61-.486 1.121-.75 2.006-.75 2.586 0 1.168.232 2.024 2.22 2.024 1.913 0 4.372-1.246 7.18-4.164-.508.933-1.014 2.06-1.014 2.88 0 .659.312 1.128 1.17 1.128 2.328 0 6.14-2.01 10.494-4.978a9.618 9.618 0 001.623-.896c.474.192.98.35 1.605.58-.428 1.016-1.794 2.726-1.794 3.738 0 1.165.544 1.712 1.522 1.712 1.763 0 5.85-2.331 8.948-4.393-.463 1.084-.717 1.94-.717 2.503 0 1.165.232 2.02 2.225 2.02 1.829 0 4.137-1.129 6.79-3.77l-1.52 4.313c-2.695 2.764-5.659 7.006-5.659 9.336 0 .546.74 1.168 1.246 1.168 1.718 0 4.954-4.12 7.723-9.726 4.179-2.524 8.468-5.597 11.824-8.049.157-.117.196-.312.196-.586 0-.545-.311-1.282-.779-1.282" fill="#FFF"/><path d="M52.814 13.426l-2.742-1.587c-.623-.358-.86-.594-1.017-.829-1.833-4.384-6.024-7.687-11.152-8.622 0 0-.003 0-.003-.002C39.548 1.363 40.653 0 40.653 0H0s2.4 3.226 5.398 3.226h23.598a15.382 15.382 0 00-3.835 2.186H4.308s2.402 3.24 5.332 3.24h12.479c-.47.691-.879 1.42-1.212 2.185H8.513s2.478 3.191 5.479 3.191h5.998c-.08.528-.132 1.063-.147 1.608-.08.408-.141.5-.64 1.003l-1.566 1.666c-.346.37-.235.545.25.398l1.793-.555c.211-.064.371-.088.503-.087h.01c.437.008.493.338.584.718l.742 2.768c.127.625.277.677-.17 1.516-2.208 4.177 5.564 12.751 9.491 14.823.112.135.92.288 1.306-.427l2.326-4.087c.341-.688.875-.793 1.384-.793 2.3 0 5.612 1.08 7.569-.555 1.422-1.181 2.34-3.894 3.149-5.563.555-1.139 2.821-.452 2.447-1.71l-1.665-5.532c-.303-.951-.303-.797.164-1.7l.974-1.848c.358-.737-.451-.768-.492-.86-7.591-1.965-23.955 1.83-24.111 1.75 0 0 14.235-6.886 28.808-2.783.19.026.505-.119.115-.352" fill="#6CC72B"/></g></svg>